<svg xmlns="http://www.w3.org/2000/svg" viewBox="0 0 116.62 19.181"><defs/><path d="M50.256 12.007c-.814 0-1.162-1.085-1.162-4.07C49.094 6.386 49.85 6 52 6c.565 0 1.016.004 1.449.011-.686 2.112-1.606 5.996-3.192 5.996m-4.36-2.036c0 .79.075 1.464.212 2.036H34.735c-1.512 0-2.479-.35-2.479-1.746V6.387h3.582c.293-.871.485-1.668.582-2.518h-4.163c.017-1.195.104-2.263.192-3.488-1.356.484-2.421 1.045-3.294 2.015V3.87h-1.841c-.154 1.047-.154 1.84-.193 2.518h2.034v4.069c0 2.848 1.725 4.07 4.088 4.07h15.462c1.894 0 3.35-1.554 4.748-5.068v5.067h3.1V3.87c-1.395-.117-2.675-.195-4.069-.195-3.836 0-6.589 1.59-6.589 6.297m16.277-1.182V7.744c0-1.357-.098-2.52-.29-3.875h-3.004c.097 1.355.194 2.518.194 3.875v6.781h3.1c0-3.799 1.22-8.12 4.455-7.653 0-.679-.097-2.23-.29-3.198-2.361.205-3.518 2.286-4.165 5.115m-42.705 3.218c-.814 0-1.163-1.085-1.163-4.07 0-1.55.757-1.937 2.906-1.937.565 0 1.016.004 1.45.011-.687 2.112-1.605 5.996-3.193 5.996M15.108 9.97c0 3.217 1.162 4.748 2.712 4.748 1.9 0 3.417-1.682 4.845-5.266v5.072h3.1V3.87c-1.395-.117-2.674-.195-4.07-.195-3.836 0-6.587 1.59-6.587 6.297m101.025-4.94c0-2.654-1.841-4.263-5.135-4.263-1.82 0-3.157.387-3.971.776-.465.658-.678 1.415-.97 2.614 1.24-.484 2.442-.87 4.263-.87 1.453 0 2.617.62 2.617 2.325 0 1.838-1.144 3.176-7.364 6.78 0 .388.02 1.162.194 2.132h10.268c.292-.872.485-1.646.582-2.518h-8.74c4.366-1.494 8.256-3.053 8.256-6.976M7.809 11.549l-.16-.086c-1.858-.987-4.359-2.497-4.359-5.25 0-2.52 1.63-3.702 3.585-3.702 2.171 0 3.488 1.53 3.488 4.207 0 1.842-1.015 3.467-2.554 4.831m5.944 3.17L8.65 11.997c2.889-1.05 5.008-3.12 5.008-6.056 0-3.953-2.966-5.947-6.782-5.947C3.37-.006-.003 2.24-.003 6.58c0 3.662 2.79 5.851 5.851 7.46l9.842 5.134c0-2.266-.27-3.566-1.937-4.456m72.543-1.164c-.87 0-3.585-1.763-3.585-6.489 0-2.327 1.358-3.778 3.585-3.778 2.228 0 3.586 1.451 3.586 3.778 0 4.726-2.713 6.49-3.586 6.49m0-12.788c-3.874 0-6.782 2.325-6.782 6.104 0 4.94 4.748 7.847 6.782 7.847 2.035 0 6.78-2.907 6.78-7.847 0-3.78-2.904-6.104-6.78-6.104m.043 5.283a8.69 8.69 0 00-1.772 1.693 8.748 8.748 0 001.772 1.693 8.871 8.871 0 001.774-1.693A8.812 8.812 0 0086.34 6.05m17.784-1.02c0-2.654-1.842-4.263-5.137-4.263-1.82 0-3.157.387-3.971.776-.464.658-.678 1.415-.97 2.614 1.242-.484 2.444-.87 4.265-.87 1.452 0 2.616.62 2.616 2.325 0 1.838-1.143 3.176-7.363 6.78 0 .388.02 1.162.194 2.132h10.27c.289-.872.483-1.646.58-2.518h-8.74c4.367-1.494 8.256-3.053 8.256-6.976m-26.16 0c0-2.654-1.838-4.263-5.132-4.263-1.822 0-3.159.387-3.971.776-.466.658-.68 1.415-.97 2.614 1.24-.484 2.442-.87 4.263-.87 1.452 0 2.615.62 2.615 2.325 0 1.838-1.144 3.176-7.362 6.78 0 .388.019 1.162.194 2.132h10.27c.29-.872.483-1.646.579-2.518h-8.74c4.365-1.494 8.255-3.053 8.255-6.976" fill="#9a1032"/></svg>